<svg width="268" height="36" viewBox="0 0 268 36" fill="none" xmlns="http://www.w3.org/2000/svg">
<g clip-path="url(#clip0_7_11686)">
<path d="M13.9113 18.7913L4.79065 3.8593H0V4.85152L0.221107 4.91848C1.32664 5.24719 2.17422 5.83765 2.17422 10.0622V24.3977C2.17422 27.2709 1.86098 27.8735 0.970414 28.1292L0.749307 28.1961V29.1883H5.85319V28.19L5.62594 28.1292C4.42214 27.8065 3.42716 27.1917 3.42716 22.9854V8.3943L12.0688 22.4741H13.0944L21.6623 8.13255V24.3916C21.6623 27.2769 21.2877 27.8796 20.4585 28.1231L20.2374 28.19V29.1823H26.625V28.19L26.4039 28.1231C25.5133 27.8674 25.2 27.2648 25.2 24.3916V10.0561C25.2 5.82548 26.0476 5.2411 27.1532 4.91239L27.3743 4.84543V3.85321H22.8661L13.9175 18.7852L13.9113 18.7913Z" fill="white"/>
<path d="M45.7814 24.3977V17.3365C45.7814 12.978 43.4966 10.6771 39.1666 10.6771C36.1448 10.6771 33.3933 12.1076 31.1945 14.8164L31.0102 15.0416L31.7903 15.7234L31.9929 15.4799C33.6574 13.4711 35.5921 12.4485 37.7417 12.4485C40.6468 12.4485 42.1761 13.9155 42.4034 16.9287L38.012 18.1035C33.8601 19.2418 29.8064 20.6845 29.8064 24.6108C29.8064 27.9953 32.5519 29.5415 35.1007 29.5415C38.0918 29.5415 40.9232 27.0944 42.4157 23.3994V27.8248C42.4157 28.6771 42.9316 29.1884 43.7915 29.1884H47.2002V28.1962L46.9791 28.1292C46.0885 27.8735 45.7753 27.2709 45.7753 24.3977H45.7814ZM42.428 18.0122V18.6696C42.3973 22.0846 40.1002 26.8387 36.4274 26.8387C34.4067 26.8387 33.0985 25.5726 33.0985 23.6064C33.0678 20.9402 35.7211 19.8323 38.3191 19.1018L42.4218 18.0061L42.428 18.0122Z" fill="white"/>
<path d="M59.7603 10.677C58.102 10.677 56.7508 11.097 55.5163 12.004C54.6994 12.5945 53.9685 13.4102 53.4035 14.3294V11.0423L52.82 10.5918L48.5882 12.4423V13.2276L48.7725 13.3067C49.5709 13.6598 50.0132 13.8546 50.0132 16.2773V24.3977C50.0132 27.2709 49.6999 27.8735 48.8093 28.1292L48.5882 28.1961V29.1883H54.8284V28.1961L54.6073 28.1292C53.772 27.8796 53.4035 27.283 53.4035 24.3977V17.6774L53.4403 17.3913C53.5324 15.8877 54.638 14.0737 55.6207 13.2945C57.7703 13.9093 59.0478 14.2502 60.0121 14.2502C61.4616 14.2502 62.3829 12.8806 62.3829 11.931C62.3829 11.1336 61.4247 10.6709 59.7603 10.6709V10.677Z" fill="white"/>
<path d="M78.5544 23.7342C76.7487 25.7613 74.8017 26.7048 72.4432 26.7048C68.0456 26.7048 65.0914 23.5516 65.0914 18.8522C65.0914 15.2547 67.1612 12.4606 70.2629 11.8702C73.2048 14.159 74.8017 15.0964 75.7598 15.0964C77.0742 15.0964 78.3087 13.8485 78.3087 12.8867C78.3087 11.6693 75.4527 10.6771 71.9457 10.6771C66.3382 10.6771 61.9468 15.0294 61.9468 20.5871C61.9468 26.4674 66.3505 29.5415 70.6989 29.5415C73.905 29.5415 76.9022 27.7761 79.3528 24.4403L79.5063 24.2273L78.7693 23.4968L78.5544 23.7403V23.7342Z" fill="white"/>
<path d="M94.3328 24.1055L90.2792 16.8617L92.6745 14.5546C94.732 12.6189 95.8806 12.278 96.9001 11.9797L97.1212 11.9127V10.9205H92.306V11.6693L92.4841 11.7484C92.6131 11.8032 92.6745 11.8823 92.6991 12.0041C92.7359 12.2171 92.6991 13.0693 90.617 15.0964L84.9358 20.4958V0.450457L84.3523 0L80.1205 1.85052V2.63578L80.3048 2.71491C81.1032 3.06797 81.5455 3.26277 81.5455 5.68549V24.3977C81.5455 27.2709 81.2322 27.8735 80.3417 28.1292L80.1205 28.1961V29.1884H86.3607V28.1961L86.1396 28.1292C85.3043 27.8796 84.9358 27.2831 84.9358 24.3977V21.9871L87.8654 19.1809L90.9118 24.7934C92.7175 28.0805 93.9643 29.1884 95.8498 29.1884H98.4724V28.1779L98.1838 28.1596C96.8018 28.0683 95.8007 26.723 94.3328 24.1177V24.1055Z" fill="white"/>
<path d="M122.198 16.5086H130.373C131.184 16.88 132.087 19.7531 132.087 21.9933C132.087 25.4691 131.509 27.2344 130.361 27.2344C128.58 27.2344 123.961 23.3446 119.121 17.7748C116.443 14.6642 113.71 11.1214 113.71 8.40651C113.71 6.71426 114.92 4.90025 117.574 4.90025C119.385 4.90025 121.683 5.4055 123.384 9.33786L123.482 9.56918L124.317 9.38656L123.887 4.86373L123.746 4.7846C121.873 3.7315 119.551 3.61584 118.642 3.61584C113.194 3.61584 110.713 6.84817 110.713 9.84919C110.713 11.3406 111.229 12.8928 112.384 14.8407C108.385 16.3199 106.193 18.9862 106.193 22.3828C106.193 26.4613 109.325 29.5354 113.483 29.5354C116.376 29.5354 118.925 27.8431 120.681 24.7508C122.622 26.6196 125.884 29.4258 127.91 29.4258C131.03 29.4258 134.986 25.6273 134.986 21.3541C134.986 19.4183 134.034 17.6165 132.492 16.5026H135.717L136.116 15.4008H122.604L122.205 16.5026L122.198 16.5086ZM114.908 27.0213C111.266 27.0213 109.301 23.9777 109.301 21.1106C109.301 19.3514 109.945 17.0139 112.973 15.7356C113.888 17.1174 115.037 18.5174 116.456 20.1793C117.291 21.1715 118.538 22.6202 119.865 23.9473C118.673 25.8221 116.751 27.0213 114.908 27.0213Z" fill="white"/>
<path d="M158.116 18.7913L148.995 3.8593H144.205V4.85152L144.426 4.91848C145.531 5.24719 146.379 5.83765 146.379 10.0622V24.3977C146.379 27.2709 146.066 27.8735 145.175 28.1292L144.954 28.1961V29.1883H150.058V28.19L149.831 28.1292C148.627 27.8065 147.632 27.1917 147.632 22.9854V8.3943L156.273 22.4741H157.299L165.867 8.13255V24.3916C165.867 27.2769 165.492 27.8796 164.663 28.1231L164.442 28.19V29.1823H170.83V28.19L170.609 28.1231C169.718 27.8674 169.405 27.2648 169.405 24.3916V10.0561C169.405 5.82548 170.252 5.2411 171.358 4.91239L171.579 4.84543V3.85321H167.071L158.122 18.7852L158.116 18.7913Z" fill="white"/>
<path d="M190.551 23.7342C188.745 25.7613 186.798 26.7048 184.44 26.7048C180.042 26.7048 177.088 23.5516 177.088 18.8522C177.088 18.3957 177.113 17.9635 177.162 17.5313H191.135L191.122 17.2148C191.024 14.0616 188.629 10.671 183.617 10.671C178.102 10.671 173.944 14.932 173.944 20.581C173.944 26.23 178.452 29.5353 182.696 29.5353C185.902 29.5353 188.899 27.77 191.35 24.4342L191.503 24.2212L190.766 23.4907L190.551 23.7342ZM177.377 16.466C178.04 13.605 179.889 11.9188 182.382 11.9188C182.407 11.9188 182.425 11.9188 182.45 11.9188C185.546 11.9188 187.179 14.5181 187.603 16.466H177.377Z" fill="white"/>
<path d="M199.211 28.1901L198.99 28.1231C198.1 27.8674 197.786 27.2648 197.786 24.3916V0.450457L197.203 0L192.971 1.85052V2.63578L193.155 2.71491C193.954 3.06797 194.396 3.26277 194.396 5.68549V24.3977C194.396 27.2831 194.021 27.8857 193.192 28.1292L192.971 28.1961V29.1884H199.211V28.1961V28.1901Z" fill="white"/>
<path d="M213.878 11.9371L214.124 11.9858C214.56 12.071 214.707 12.2597 214.775 12.3936C215.026 12.8623 214.836 13.818 214.222 15.2364L210.125 24.6838L206.029 15.2364C205.347 13.6476 204.892 12.5945 205.064 12.2293C205.095 12.1623 205.169 12.0649 205.476 11.9736L205.697 11.9067V10.9144H199.703V11.8762L199.887 11.9553C200.556 12.2414 201.392 12.8806 202.466 15.4677L208.252 28.9327C207.306 30.8502 206.28 32.3294 205.255 33.2425C204.696 33.139 204.106 33.0172 203.535 32.8955C202.473 32.6703 201.471 32.4511 200.857 32.4511C199.42 32.4511 198.339 33.8147 198.339 34.6973C198.339 34.9286 198.443 35.1478 198.634 35.3365C199.058 35.7443 199.924 35.9939 200.919 35.9939C200.968 35.9939 201.023 35.9939 201.072 35.9939C203.541 35.9574 206.766 35.026 209.794 28.1109L215.315 15.4738C216.421 12.9841 217.281 12.2719 218.226 11.9675L218.441 11.9006V10.9144H213.872V11.931L213.878 11.9371Z" fill="white"/>
<path d="M227.157 18.3409L226.641 18.1765C223.877 17.2756 221.758 16.4234 221.758 14.4024C221.758 12.7832 223.201 11.7423 225.443 11.7423C227.838 11.7423 230.006 13.2702 231.112 15.7294L231.21 15.9547L232.064 15.7842L231.904 11.7301L231.726 11.6571C230.645 11.2066 228.514 10.6831 226.088 10.6831C222.028 10.6831 219.295 12.7893 219.295 15.9303C219.295 19.2783 221.678 20.2705 225.314 21.4088C228.01 22.2732 230.338 23.0281 230.338 25.3534C230.338 27.1065 228.882 28.33 226.8 28.33C223.779 28.2996 221.297 26.443 219.811 23.1072L219.707 22.8759L218.884 23.0585L219.234 27.7396L219.356 27.8248C220.616 28.6588 223.164 29.4988 226.014 29.4988C230.725 29.4623 232.838 26.5526 232.838 23.6855C232.838 20.1549 229.822 19.187 227.157 18.3348V18.3409Z" fill="white"/>
<path d="M243.009 18.3409L242.493 18.1765C239.729 17.2756 237.61 16.4234 237.61 14.4024C237.61 12.7832 239.053 11.7423 241.295 11.7423C243.691 11.7423 245.859 13.2702 246.964 15.7294L247.062 15.9547L247.916 15.7842L247.756 11.7301L247.578 11.6571C246.491 11.2066 244.366 10.6831 241.94 10.6831C237.88 10.6831 235.147 12.7893 235.147 15.9303C235.147 19.2783 237.53 20.2705 241.166 21.4088C243.862 22.2732 246.19 23.0281 246.19 25.3534C246.19 27.1065 244.735 28.33 242.653 28.33C239.631 28.2996 237.149 26.443 235.663 23.1072L235.559 22.8759L234.736 23.0585L235.086 27.7396L235.209 27.8248C236.468 28.6588 239.017 29.4988 241.866 29.4988C246.577 29.4623 248.69 26.5526 248.69 23.6855C248.69 20.1549 245.674 19.187 243.009 18.3348V18.3409Z" fill="white"/>
<path d="M267.779 28.1292C266.888 27.8735 266.575 27.2709 266.575 24.3977V17.3365C266.575 12.978 264.29 10.6771 259.96 10.6771C256.939 10.6771 254.181 12.1076 251.988 14.8164L251.804 15.0416L252.584 15.7234L252.787 15.4799C254.451 13.4711 256.386 12.4485 258.535 12.4485C261.441 12.4485 262.97 13.9155 263.203 16.9287L258.812 18.1035C254.66 19.2418 250.606 20.6845 250.606 24.6108C250.606 27.9953 253.352 29.5415 255.901 29.5415C258.892 29.5415 261.723 27.0944 263.215 23.3994V27.8248C263.215 28.6771 263.731 29.1884 264.591 29.1884H268V28.1962L267.779 28.1292ZM263.215 18.0122V18.6696C263.185 22.0846 260.888 26.8387 257.215 26.8387C255.194 26.8387 253.886 25.5726 253.886 23.6064C253.855 20.9402 256.509 19.8323 259.107 19.1018L263.209 18.0061L263.215 18.0122Z" fill="white"/>
</g>
<defs>
<clipPath id="clip0_7_11686">
<rect width="268" height="36" fill="white"/>
</clipPath>
</defs>
</svg>
